<svg xmlns="http://www.w3.org/2000/svg" viewBox="0 0 783.69 319.53"><path fill="#231f20" fill-rule="evenodd" d="M345.94 165.84c-11.4 33.58-3.44 40.87 8.16 47 14.86 7.89 48.07-16.9 68.69-37.16 2-1.94 5.41 1.27 6.33 3.59 2.2 5.55.85 31.94 47.14 31.94 15.33 0 34.6-5.61 52.74-26.94 3-3.57 5.88-2.83 7.53-.81 3.42 4.19-1.73 2.26 11.4 14.19 3.1 2.81 13.46 9 34.93-.31.26-.12 3.17.18 6 3.33 7.1 8 11.73 11.87 27.31 13.13 12.67 1 28.72-6.8 39-11 3-1.22 5.74-2.65 7.62-3.16 3.52-1 4.8-.28 4.8-.28s16.53 14.36 61.41 11.07c15.33-1.13 32.58-7.9 48.78-13.62 5.79-2 7-5.27 5.24-7.91-2.6-3.87-2.21-4.92-23.76 2.66a90.65 90.65 0 01-61.09-.07c-3.57-1.25-9.56-3.31-4.58-8.3 2.45-2.46 11.94-8.61 17.87-13.83 16.79-14.78 25.46-23.95 26.08-33.68.6-9.38-20.06-18-39.84-16-13.8 1.44-27.75 6.11-42.35 21.57-2.83 3-7.45 11.67-8.21 20.61-.45 5.34-.63 10.29.55 14.64.38 1.38 1.89 5.3.17 6.89-7.85 7.25-21.5 14.17-30.1 10-10.89-5.32-6.35-17.5.3-31.51 4.08-8.6 7.86-17.91 11.73-25.84a375.41 375.41 0 0123.22-40.3c4.78-7.17 8.72-10.34 12.83-19 2.68-5.73-11.32-17.73-17.67-11.41-8.18 8.19-22.06 30.65-36.38 52-5 7.38-7.89 13.06-12.47 19.6-11.23 16-22.43 29.78-25.43 32.13-8.92 7-14.69 3-16.83-6.43-1.71-7.52 2.57-12.94 4.19-24 1-6.58-4.55-10.78-6.81-11.51-5.13-1.66-10.62 5.7-13.87 3.51-17.38-11.72-45.8-11.13-66 22.95a70.44 70.44 0 00-7.65 21.9c-.61 4-1.43 7.79-1.66 10.85-.28 3.85-.06 6.19-2.21 6.83-1.39.4-5.65-2.73-8.81-9a41.19 41.19 0 01-5-19c-.17-7.73 2.1-15 5.28-30.7 1.73-8.52 2-11.72 9.59-31.37 4.84-12.54 11.28-26.51 17.26-38.43 11.56-23 23.78-43 24.74-49.15.55-3.46-3.79-8.35-7.32-11.77-1.65-1.6-5.42-5.45-10-2.72-5 2.94-19.66 33.61-34.82 65-9.48 19.65-17.88 40.46-25.31 52.92-5.57 9.36-10.16 14-12.47 11.79-3.57-3.4-14-11.57-20.38-11.16-26.16 1.66-37.2 8.96-49.87 46.27zM127.35 55.57c80.11-24.07 120.35-7.71 106.79 6.57-19.33 20.36-78.54 50.27-108.94 64.05-11.22 5.08-20.41 15.49-10.21-17.23 3.37-10.8 5.09-17.68 3.29-21.48-2.59-5.49-6.4-6.91-9.67-7.45-18.55-3.09-22.46 12.1-24.74 40.7a186 186 0 01-4.89 27.17c-2.28 9.22-41 19.62-42.58 37.1-1.87 20.17 21.7 18.55 30.63 20 12.89 2.07-15.14 47 1.86 51.8 23.08 6.46 22-53.8 26.61-54 26.69-1.27 49-1.24 65.24-.37 49 2.62 54.49 11.3 54.49 2.36 0-19.09-55.52-23.25-109.59-23.25-5 0-6.83-1.17-6.19-5 1.1-6.5 3.52-16.78 4.72-18.65 6.19-9.6 86.76-32.3 164.25-80.27 27.78-17.21 37.76-33-12.16-48.54-40-12.41-87.3-4.42-153.52 16.78C48.98 63.07 4.21 82.21.38 100.15c-1.47 6.91.16 14.22 26.68 6 7.64-2.38 14.39-4.87 20-6.13 15.45-3.44 22.06-5.64 19-9.18-2.7-3.18-8.22-.88-14 .22-9 1.72-15.37 5-14.91.16.77-6.92 52.3-24.21 90.2-35.65zm145.86 231.14c2.36-10.64 16.5-44.46 33.17-71.34 27.38-44.16 37.53-75 36.94-73.38 5.09-14.34 1.34-24.92-5.43-24.86-23.62.17-65 41.37-84.23 41.25a21.68 21.68 0 01-21.37-17.21c-.93-4.19-.5-7.66.73-12.35 1.16-4.38 4.18-7.15 2.74-10-2.23-4.4-9.1-1.63-14.53-1.23-7 .53-12.27 1.6-15 2.74-1.15.48-4.13 3.45-4.25 4.76-3 31.67 8.59 53.81 31.95 55.73 28.48 2.34 35.89-4.49 51.62-14.47 6.4-4 15.22-9.48 21.92-13.2 2.65-1.48 4-.64 5-.12 2.48 1.24-5.73 20.68-15.6 38-19.48 34.17-60.06 81.21-63 113.69-.58 6.49 8 14.46 18 14.78 6.79.21 16.67-.93 18.52-9.35 1.84-8.14.45-12.81 2.82-23.44zM71.65 183.6c3.19-.11 3.6-4.93.93-4.62-3.58.41-2.77 4.69-.93 4.62zm332.45-23.4c6.86-22.36-18.46-20.25-29.72.83-32.17 60.22 27.14 7.59 29.72-.83zm118.89-2.31c7.64-20.28-13.77-14.12-22.64 1.86-26 46.77 16.85 13.51 22.64-1.86zm151.21 12.88c1 2.12 12.25-4.5 20.73-12.46 10.34-9.71 16.84-16.12 13.47-18-12.81-7.16-41.24 14.92-34.2 30.46z"/></svg>